<?xml version="1.0" encoding="UTF-8" standalone="no"?>
<svg
   xmlns:dc="http://purl.org/dc/elements/1.1/"
   xmlns:cc="http://creativecommons.org/ns#"
   xmlns:rdf="http://www.w3.org/1999/02/22-rdf-syntax-ns#"
   xmlns:svg="http://www.w3.org/2000/svg"
   xmlns="http://www.w3.org/2000/svg"
   xmlns:xlink="http://www.w3.org/1999/xlink"
   xmlns:sodipodi="http://sodipodi.sourceforge.net/DTD/sodipodi-0.dtd"
   xmlns:inkscape="http://www.inkscape.org/namespaces/inkscape"
   width="1024"
   height="500"
   viewBox="0 0 270.93333 132.29167"
   version="1.1"
   id="svg931"
   inkscape:version="1.0.1 (3bc2e813f5, 2020-09-07)"
   sodipodi:docname="feature.svg"
   inkscape:export-filename="/home/kungfoo/repositories/falcon-bms-universal-mfd/gfx/feature.png"
   inkscape:export-xdpi="96"
   inkscape:export-ydpi="96">
  <defs
     id="defs925">
    <rect
       x="86.679428"
       y="23.044718"
       width="235.04756"
       height="78.027121"
       id="rect1541" />
    <linearGradient
       inkscape:collect="always"
       xlink:href="#linearGradient5279"
       id="linearGradient871"
       x1="40.63599"
       y1="14.021615"
       x2="143.74754"
       y2="154.5778"
       gradientUnits="userSpaceOnUse"
       gradientTransform="matrix(2.0269169,0,0,1.0044492,0.0869435,-0.60836909)" />
    <linearGradient
       inkscape:collect="always"
       id="linearGradient5279">
      <stop
         style="stop-color:#00ffff;stop-opacity:1"
         offset="0"
         id="stop5275" />
      <stop
         style="stop-color:#000eca;stop-opacity:1"
         offset="1"
         id="stop5277" />
    </linearGradient>
    <rect
       x="86.679428"
       y="23.044718"
       width="235.04756"
       height="78.027122"
       id="rect1541-5" />
    <rect
       x="86.679428"
       y="23.044718"
       width="235.04756"
       height="78.027122"
       id="rect1554" />
  </defs>
  <sodipodi:namedview
     id="base"
     pagecolor="#ffffff"
     bordercolor="#666666"
     borderopacity="1.0"
     inkscape:pageopacity="0.0"
     inkscape:pageshadow="2"
     inkscape:zoom="0.92555095"
     inkscape:cx="340.6245"
     inkscape:cy="50.09"
     inkscape:document-units="px"
     inkscape:current-layer="layer1"
     inkscape:document-rotation="0"
     showgrid="false"
     units="px"
     inkscape:window-width="2560"
     inkscape:window-height="1380"
     inkscape:window-x="0"
     inkscape:window-y="20"
     inkscape:window-maximized="1" />
  <metadata
     id="metadata928">
    <rdf:RDF>
      <cc:Work
         rdf:about="">
        <dc:format>image/svg+xml</dc:format>
        <dc:type
           rdf:resource="http://purl.org/dc/dcmitype/StillImage" />
        <dc:title></dc:title>
      </cc:Work>
    </rdf:RDF>
  </metadata>
  <g
     inkscape:label="Layer 1"
     inkscape:groupmode="layer"
     id="layer1">
    <rect
       style="display:inline;opacity:1;fill:url(#linearGradient871);fill-opacity:1;fill-rule:evenodd;stroke-width:0.377492;stroke-miterlimit:4;stroke-dasharray:none"
       id="rect5247"
       width="275.27621"
       height="136.24654"
       x="-0.60958636"
       y="-0.78552765"
       ry="0" />
    <g
       id="g1576"
       transform="translate(87.481798,24.401087)">
      <path
         id="path5245"
         style="fill:#606060;fill-opacity:0.214068;stroke:none;stroke-width:0.264583px;stroke-linecap:butt;stroke-linejoin:miter;stroke-opacity:1"
         d="m -27.558206,13.62701 -8.381921,26.005134 -15.461588,-15.419217 8.460465,22.884387 -14.79548,10.46086 C 13.449664,136.27361 68.911854,196.98895 112.32162,241.83892 c 70.42197,90.42112 72.24722,105.51526 74.26213,71.2184 62.65628,52.50093 79.08373,35.02949 88.51245,-29.7026 L 32.841204,41.767414 1.1702645,42.276424 Z"
         inkscape:transform-center-x="-48.78883"
         inkscape:transform-center-y="58.514883" />
      <path
         id="path611-3"
         style="display:inline;fill:#f2f2f2;fill-opacity:1;stroke:none;stroke-width:0.264583;stroke-opacity:1"
         d="m -36.743957,12.451638 v 1.175123 H -35.204 v 21.129453 h -0.19172 -6.550504 l -9.455238,-10.543537 h -4.795573 c -1.53908,0 -1.53944,1.314647 -1.53944,1.314647 v 9.40873 h 0.905372 v 2.39985 h 7.057968 c -6.469858,0.5424 -9.094019,1.62988 -9.09402,1.62988 v 3.16415 1.85466 c 0,0 2.624162,1.08748 9.09402,1.62988 v 0.13539 h -7.057968 v 2.39934 h -0.905372 v 9.40872 c 0,0 3.6e-4,1.31258 1.53944,1.31258 h 4.795573 l 9.455238,-10.54095 h 6.455422 c 0.03167,0.004 0.06245,0.009 0.09508,0.009 h 0.191719 v 21.11755 h -1.539957 v 1.17719 h 15.880174 c 0,0 0.40772,9e-5 0.40772,-0.17983 0,0 -0.18031,-0.59015 -1.13017,-0.59015 h -2.39675 l -0.85989,-0.40721 h -2.66702 -0.0481 l 16.73799,-19.1823 c 0,0 2.7619205,0.17977 7.4662105,-1.53737 0,0 6.96679,-2.21711 15.2006295,-2.80448 0,0 2.89697,0.0449 2.89697,-0.72502 0,0 11.80847,-0.3175 18.09762,-3.43959 l 3.30212,-0.0899 v -0.13487 -0.13488 l -3.30212,-0.093 c -6.28915,-3.12204 -18.09762,-3.43645 -18.09762,-3.43645 0,-0.76993 -2.89696,-0.72502 -2.89696,-0.72502 -8.2338395,-0.58737 -15.2006295,-2.80499 -15.2006295,-2.80499 -4.7043,-1.71979 -7.4662105,-1.53686 -7.4662105,-1.53686 l -16.738,-19.184873 h 2.71508 l 0.8599,-0.405144 h 2.39675 c 0.94986,0 1.13016,-0.590145 1.13016,-0.590145 0,-0.179916 -0.40772,-0.179834 -0.40772,-0.179834 z"
         inkscape:transform-center-x="71.252715"
         inkscape:transform-center-y="-78.719066" />
    </g>
    <g
       id="g1582"
       transform="matrix(0.58012522,0,0,0.58012522,113.27302,19.616529)">
      <text
         xml:space="preserve"
         id="text1539"
         style="font-style:normal;font-variant:normal;font-weight:bold;font-stretch:normal;font-size:22.5778px;line-height:1.25;font-family:'Source Sans 3 VF';-inkscape-font-specification:'Source Sans 3 VF Bold';letter-spacing:0px;word-spacing:0px;white-space:pre;shape-inside:url(#rect1541);fill:#000000;fill-opacity:1;stroke:none;"
         transform="translate(-34.020985,5.0877983)"><tspan
           x="86.679688"
           y="42.102869"><tspan
             style="font-style:normal;font-variant:normal;font-weight:bold;font-stretch:normal;font-size:22.5778px;font-family:'Source Sans 3 VF';-inkscape-font-specification:'Source Sans 3 VF Bold';fill:#000000;fill-opacity:1">Falcon BMS Control</tspan></tspan></text>
      <text
         xml:space="preserve"
         id="text1539-6"
         style="font-style:normal;font-variant:normal;font-weight:bold;font-stretch:normal;font-size:22.5778px;line-height:1.25;font-family:'Source Sans 3 VF';-inkscape-font-specification:'Source Sans 3 VF Bold';letter-spacing:0px;word-spacing:0px;white-space:pre;shape-inside:url(#rect1541-5);fill:#000000;fill-opacity:1;stroke:none;"
         transform="translate(-32.982406,34.183421)"><tspan
           x="86.679688"
           y="42.102869"><tspan
             style="font-style:normal;font-variant:normal;font-weight:200;font-stretch:normal;font-size:22.5778px;font-family:'Source Sans 3 VF';-inkscape-font-specification:'Source Sans 3 VF Ultra-Light';fill:#000000;fill-opacity:1">Take control of
</tspan></tspan><tspan
           x="86.679688"
           y="70.325121"><tspan
             style="font-style:normal;font-variant:normal;font-weight:200;font-stretch:normal;font-size:22.5778px;font-family:'Source Sans 3 VF';-inkscape-font-specification:'Source Sans 3 VF Ultra-Light';fill:#000000;fill-opacity:1">Falcon BMS</tspan></tspan></text>
    </g>
  </g>
</svg>
