<?xml version="1.0" encoding="UTF-8" standalone="no"?>
<svg
   viewBox="0 0 50 50"
   version="1.1"
   id="svg845"
   sodipodi:docname="layouts.svg"
   inkscape:version="1.3.2 (091e20e, 2023-11-25)"
   inkscape:export-filename="layouts.png"
   inkscape:export-xdpi="983.03998"
   inkscape:export-ydpi="983.03998"
   xmlns:inkscape="http://www.inkscape.org/namespaces/inkscape"
   xmlns:sodipodi="http://sodipodi.sourceforge.net/DTD/sodipodi-0.dtd"
   xmlns="http://www.w3.org/2000/svg"
   xmlns:svg="http://www.w3.org/2000/svg"
   xmlns:rdf="http://www.w3.org/1999/02/22-rdf-syntax-ns#"
   xmlns:cc="http://creativecommons.org/ns#"
   xmlns:dc="http://purl.org/dc/elements/1.1/">
  <metadata
     id="metadata851">
    <rdf:RDF>
      <cc:Work
         rdf:about="">
        <dc:format>image/svg+xml</dc:format>
        <dc:type
           rdf:resource="http://purl.org/dc/dcmitype/StillImage" />
      </cc:Work>
    </rdf:RDF>
  </metadata>
  <defs
     id="defs849" />
  <sodipodi:namedview
     pagecolor="#ffffff"
     bordercolor="#666666"
     borderopacity="1"
     objecttolerance="10"
     gridtolerance="10"
     guidetolerance="10"
     inkscape:pageopacity="0"
     inkscape:pageshadow="2"
     inkscape:window-width="1680"
     inkscape:window-height="997"
     id="namedview847"
     showgrid="false"
     inkscape:zoom="7.9984451"
     inkscape:cx="30.443417"
     inkscape:cy="26.255103"
     inkscape:window-x="0"
     inkscape:window-y="25"
     inkscape:window-maximized="0"
     inkscape:current-layer="svg845"
     inkscape:showpageshadow="2"
     inkscape:pagecheckerboard="0"
     inkscape:deskcolor="#d1d1d1"
     showguides="true">
    <sodipodi:guide
       position="6.0011664,24.495043"
       orientation="1,0"
       id="guide3"
       inkscape:locked="false" />
  </sodipodi:namedview>
  <path
     d="M 5.953125,0 C 2.6674173,0 0,2.6674173 0,5.953125 v 38.09375 C 0,47.332583 2.6674173,50 5.953125,50 h 38.09375 C 47.332583,50 50,47.332583 50,44.046875 V 5.953125 C 50,2.6674173 47.332583,0 44.046875,0 Z M 7.9003906,3.7988281 H 21.179687 c 1.107999,0 2,0.8920011 2,2 V 29.554687 c 0,1.107999 -0.892001,2 -2,2 H 7.9003906 c -1.1079989,0 -2,-0.892001 -2,-2 V 5.7988281 c 0,-1.1079989 0.8920011,-2 2,-2 z m 20.7890624,0 H 41.96875 c 1.107999,0 2,0.8920011 2,2 v 8.1093749 c 0,1.107999 -0.892001,2 -2,2 H 28.689453 c -1.107999,0 -2,-0.892001 -2,-2 V 5.7988281 c 0,-1.1079989 0.892001,-2 2,-2 z m 0.191406,15.3749999 h 13.277344 c 1.107999,0 2,0.892001 2,2 v 8.109375 c 0,1.107999 -0.892001,2 -2,2 H 28.880859 c -1.107999,0 -2,-0.892001 -2,-2 v -8.109375 c 0,-1.107999 0.892001,-2 2,-2 z M 7.8417969,34.636719 H 41.777344 c 1.107999,0 2,0.892001 2,2 v 7.564453 c 0,1.107999 -0.892001,2 -2,2 H 7.8417969 c -1.1079989,0 -2,-0.892001 -2,-2 v -7.564453 c 0,-1.107999 0.8920011,-2 2,-2 z"
     style="fill:#ffffff;stroke-width:1.19048"
     id="path14" />
</svg>
